{
    "asset": {
        "version": "2.0",
        "generator": "Open Asset Import Library (assimp v5.0.5eb040c7)"
    },
    "accessors": [
        {
            "bufferView": 0,
            "byteOffset": 0,
            "componentType": 5126,
            "count": 656052,
            "type": "VEC3",
            "max": [
                1.8897876739501954,
                1.4783804416656495,
                0.8114060163497925
            ],
            "min": [
                -1.8897793292999268,
                -5.551300048828125,
                -0.48165997862815859
            ]
        },
        {
            "bufferView": 1,
            "byteOffset": 0,
            "componentType": 5125,
            "count": 3936300,
            "type": "SCALAR",
            "max": [
                656051
            ],
            "min": [
                0
            ]
        },
        {
            "bufferView": 2,
            "byteOffset": 0,
            "componentType": 5126,
            "count": 49156,
            "type": "VEC3",
            "max": [
                0.20486626029014588,
                1.0726425647735596,
                0.499006450176239
            ],
            "min": [
                -0.20485788583755494,
                0.8829877972602844,
                0.3082714080810547
            ]
        },
        {
            "bufferView": 3,
            "byteOffset": 0,
            "componentType": 5125,
            "count": 294912,
            "type": "SCALAR",
            "max": [
                49155
            ],
            "min": [
                0
            ]
        }
    ],
    "buffers": [
        {
            "byteLength": 25387344,
            "uri": "result.bin"
        }
    ],
    "bufferViews": [
        {
            "buffer": 0,
            "byteOffset": 0,
            "byteLength": 7872624,
            "target": 34962
        },
        {
            "buffer": 0,
            "byteOffset": 7872624,
            "byteLength": 15745200,
            "target": 34963
        },
        {
            "buffer": 0,
            "byteOffset": 23617824,
            "byteLength": 589872,
            "target": 34962
        },
        {
            "buffer": 0,
            "byteOffset": 24207696,
            "byteLength": 1179648,
            "target": 34963
        }
    ],
    "materials": [
        {
            "name": "DefaultMaterial",
            "pbrMetallicRoughness": {
                "baseColorFactor": [
                    0.6000000238418579,
                    0.6000000238418579,
                    0.6000000238418579,
                    1.0
                ],
                "metallicFactor": 0.0
            }
        }
    ],
    "meshes": [
        {
            "name": "Group16371",
            "primitives": [
                {
                    "mode": 4,
                    "material": 0,
                    "indices": 1,
                    "attributes": {
                        "POSITION": 0
                    }
                }
            ]
        },
        {
            "name": "Group9192",
            "primitives": [
                {
                    "mode": 4,
                    "material": 0,
                    "indices": 3,
                    "attributes": {
                        "POSITION": 2
                    }
                }
            ]
        }
    ],
    "nodes": [
        {
            "name": "input.obj",
            "children": [
                1,
                2
            ]
        },
        {
            "name": "Group16371",
            "mesh": 0
        },
        {
            "name": "Group9192",
            "mesh": 1
        }
    ],
    "scenes": [
        {
            "nodes": [
                0
            ]
        }
    ],
    "scene": 0
}